<?xml version="1.0" encoding="utf-8"?>
<!-- Generator: Adobe Illustrator 25.2.3, SVG Export Plug-In . SVG Version: 6.00 Build 0)  -->
<svg version="1.1" id="Layer_1" xmlns="http://www.w3.org/2000/svg" xmlns:xlink="http://www.w3.org/1999/xlink" x="0px" y="0px"
	 viewBox="0 0 77 76" style="enable-background:new 0 0 77 76;" xml:space="preserve">
<style type="text/css">
	.st0{fill:none;stroke:#FFFFFF;stroke-width:4;stroke-linecap:round;stroke-linejoin:round;stroke-miterlimit:10;}
	.st1{fill:none;stroke:#FFFFFF;stroke-miterlimit:10;}
	.st2{fill:none;stroke:#FFFFFF;stroke-width:4;stroke-linecap:square;stroke-linejoin:round;stroke-miterlimit:10;}
</style>
<g id="wine_cellar-winery_2_">
	<g>
		<line class="st0" x1="21.5" y1="28.5" x2="21.5" y2="48.5"/>
		<line class="st0" x1="29.5" y1="21.5" x2="29.5" y2="55.5"/>
		<circle class="st1" cx="37.5" cy="55.5" r="2"/>
		<path class="st0" d="M42.5,63c-1.6,0.3-3.3,0.5-5,0.5c-13.8,0-25-11.2-25-25c0-12.8,9.6-23.3,22-24.8"/>
		<path class="st0" d="M33.5,69.2c-15.2-2-27-15-27-30.7c0-17.1,13.9-31,31-31"/>
	</g>
	<g>
		<path class="st2" d="M41.5,69.5h24c0,0-10-4-12-10C51.5,65.5,41.5,69.5,41.5,69.5z"/>
		<line class="st0" x1="53.5" y1="43.5" x2="53.5" y2="60.5"/>
		<line class="st0" x1="48.5" y1="28.5" x2="68.5" y2="28.5"/>
		<path class="st0" d="M68.5,28.5c0,8.3-6.7,15-15,15s-15-6.7-15-15c0-6.9,5-21,5-21h20C63.5,7.5,68.5,20.2,68.5,28.5z"/>
	</g>
</g>
</svg>
